<?xml version="1.0" encoding="UTF-8" standalone="no"?>
<!DOCTYPE svg PUBLIC "-//W3C//DTD SVG 1.1//EN" "http://www.w3.org/Graphics/SVG/1.1/DTD/svg11.dtd">
<svg version="1.1" xmlns="http://www.w3.org/2000/svg" xmlns:xlink="http://www.w3.org/1999/xlink" preserveAspectRatio="xMidYMid meet" viewBox="0 0 640 640" width="640" height="640"><defs><path d="M635 320C635 493.85 493.85 635 320 635C146.15 635 5 493.85 5 320C5 146.15 146.15 5 320 5C493.85 5 635 146.15 635 320Z" id="ajmopMXyJ"></path><path d="M346.36 30.84C351.89 30.84 356.36 35.32 356.36 40.84C356.36 110.17 356.36 308.15 356.36 377.48C356.36 383.01 351.89 387.48 346.36 387.48C333.82 387.48 306.18 387.48 293.64 387.48C288.11 387.48 283.64 383.01 283.64 377.48C283.64 308.15 283.64 110.17 283.64 40.84C283.64 35.32 288.11 30.84 293.64 30.84C306.18 30.84 333.82 30.84 346.36 30.84Z" id="dNdtRnhCf"></path><path d="M216.5 209.16C222.03 209.16 226.5 213.64 226.5 219.16C226.5 288.49 226.5 486.48 226.5 555.8C226.5 561.33 222.03 565.8 216.5 565.8C203.96 565.8 176.32 565.8 163.78 565.8C158.25 565.8 153.78 561.33 153.78 555.8C153.78 486.48 153.78 288.49 153.78 219.16C153.78 213.64 158.25 209.16 163.78 209.16C176.32 209.16 203.96 209.16 216.5 209.16Z" id="f31qNljlQ"></path><path d="M478.95 209.16C484.47 209.16 488.95 213.64 488.95 219.16C488.95 288.49 488.95 486.48 488.95 555.8C488.95 561.33 484.47 565.8 478.95 565.8C466.41 565.8 438.77 565.8 426.22 565.8C420.7 565.8 416.22 561.33 416.22 555.8C416.22 486.48 416.22 288.49 416.22 219.16C416.22 213.64 420.7 209.16 426.22 209.16C438.77 209.16 466.41 209.16 478.95 209.16Z" id="k1ZoghmhCy"></path><path d="M584.76 30.84C590.28 30.84 594.76 35.32 594.76 40.84C594.76 110.17 594.76 308.15 594.76 377.48C594.76 383.01 590.28 387.48 584.76 387.48C572.21 387.48 544.57 387.48 532.03 387.48C526.51 387.48 522.03 383.01 522.03 377.48C522.03 308.15 522.03 110.17 522.03 40.84C522.03 35.32 526.51 30.84 532.03 30.84C544.57 30.84 572.21 30.84 584.76 30.84Z" id="b214lYwpj"></path><path d="M105.24 30.84C110.77 30.84 115.24 35.32 115.24 40.84C115.24 110.17 115.24 308.15 115.24 377.48C115.24 383.01 110.77 387.48 105.24 387.48C92.7 387.48 65.06 387.48 52.52 387.48C46.99 387.48 42.52 383.01 42.52 377.48C42.52 308.15 42.52 110.17 42.52 40.84C42.52 35.32 46.99 30.84 52.52 30.84C65.06 30.84 92.7 30.84 105.24 30.84Z" id="a4kUWEluM"></path></defs><g><g><g><g></g><use xlink:href="#ajmopMXyJ" opacity="1" fill="#929292" fill-opacity="1"></use><g><use xlink:href="#ajmopMXyJ" opacity="1" fill-opacity="0" stroke="#588770" stroke-width="0" stroke-opacity="1"></use></g><g></g></g><g><use xlink:href="#dNdtRnhCf" opacity="1" fill="#535050" fill-opacity="1"></use></g><g><use xlink:href="#f31qNljlQ" opacity="1" fill="#ff6900" fill-opacity="1"></use></g><g><use xlink:href="#k1ZoghmhCy" opacity="1" fill="#ff6900" fill-opacity="1"></use></g><g><use xlink:href="#b214lYwpj" opacity="1" fill="#cbcbcb" fill-opacity="1"></use></g><g><use xlink:href="#a4kUWEluM" opacity="1" fill="#cbcbcb" fill-opacity="1"></use></g></g></g></svg>